<svg xmlns="http://www.w3.org/2000/svg" width="2200" height="1120" viewBox="0 0 2200 1120"><defs><marker id="arrow" markerWidth="10" markerHeight="10" refX="9" refY="3" orient="auto" markerUnits="strokeWidth"><path d="M0,0 L0,6 L9,3 z" fill="#374151"/></marker></defs><rect width="100%" height="100%" fill="#ffffff"/><text x="32" y="44" font-family="Arial, sans-serif" font-size="28" font-weight="700" fill="#5b1747">Sales / CRM Swimlane</text><text x="32" y="74" font-family="Arial, sans-serif" font-size="14" fill="#475569">Detailed swimlane diagram with flowchart symbols</text><rect x="30" y="105" width="2140" height="145" fill="#f8fafc" stroke="#cbd5e1"/><rect x="30" y="105" width="180" height="145" fill="#e2e8f0" stroke="#cbd5e1"/><text x="120" y="177.5" transform="rotate(-90 120 177.5)" text-anchor="middle" font-family="Arial, sans-serif" font-size="13" font-weight="700" fill="#111827">Customer</text><rect x="30" y="250" width="2140" height="145" fill="#f8fafc" stroke="#cbd5e1"/><rect x="30" y="250" width="180" height="145" fill="#e2e8f0" stroke="#cbd5e1"/><text x="120" y="322.5" transform="rotate(-90 120 322.5)" text-anchor="middle" font-family="Arial, sans-serif" font-size="13" font-weight="700" fill="#111827">Sales / CRM</text><rect x="30" y="395" width="2140" height="145" fill="#f8fafc" stroke="#cbd5e1"/><rect x="30" y="395" width="180" height="145" fill="#e2e8f0" stroke="#cbd5e1"/><text x="120" y="467.5" transform="rotate(-90 120 467.5)" text-anchor="middle" font-family="Arial, sans-serif" font-size="13" font-weight="700" fill="#111827">Engineering / Product</text><rect x="30" y="540" width="2140" height="145" fill="#f8fafc" stroke="#cbd5e1"/><rect x="30" y="540" width="180" height="145" fill="#e2e8f0" stroke="#cbd5e1"/><text x="120" y="612.5" transform="rotate(-90 120 612.5)" text-anchor="middle" font-family="Arial, sans-serif" font-size="13" font-weight="700" fill="#111827">Inventory / MRP</text><rect x="30" y="685" width="2140" height="145" fill="#f8fafc" stroke="#cbd5e1"/><rect x="30" y="685" width="180" height="145" fill="#e2e8f0" stroke="#cbd5e1"/><text x="120" y="757.5" transform="rotate(-90 120 757.5)" text-anchor="middle" font-family="Arial, sans-serif" font-size="13" font-weight="700" fill="#111827">Accounting</text><rect x="30" y="830" width="2140" height="145" fill="#f8fafc" stroke="#cbd5e1"/><rect x="30" y="830" width="180" height="145" fill="#e2e8f0" stroke="#cbd5e1"/><text x="120" y="902.5" transform="rotate(-90 120 902.5)" text-anchor="middle" font-family="Arial, sans-serif" font-size="13" font-weight="700" fill="#111827">Management</text><rect x="230" y="145" width="180" height="64" rx="32.0" ry="32.0" fill="#d9ead3" stroke="#334155" stroke-width="1.4"/><text text-anchor="middle" font-family="Arial, sans-serif" font-size="13" font-weight="400" fill="#111827"><tspan x="320.0" y="182.0">Customer inquiry / RFQ</tspan></text><polygon points="512,145 680,145 658,209 490,209" fill="#d0e0e3" stroke="#334155" stroke-width="1.4"/><text text-anchor="middle" font-family="Arial, sans-serif" font-size="13" font-weight="400" fill="#111827"><tspan x="585.0" y="174.0">Spec, MOQ, delivery</tspan><tspan x="585.0" y="190.0">date</tspan></text><rect x="740" y="290" width="210" height="64" fill="#dae8fc" stroke="#334155" stroke-width="1.4"/><text text-anchor="middle" font-family="Arial, sans-serif" font-size="13" font-weight="400" fill="#111827"><tspan x="845.0" y="327.0">Create lead / opportunity</tspan></text><polygon points="1085.0,272 1160,322.0 1085.0,372 1010,322.0" fill="#f4cccc" stroke="#334155" stroke-width="1.4"/><text text-anchor="middle" font-family="Arial, sans-serif" font-size="12" font-weight="400" fill="#111827"><tspan x="1085.0" y="326.5">Need BOM costing?</tspan></text><rect x="1240" y="435" width="220" height="64" fill="#dae8fc" stroke="#334155" stroke-width="1.4"/><text text-anchor="middle" font-family="Arial, sans-serif" font-size="13" font-weight="400" fill="#111827"><tspan x="1350.0" y="472.0">Use product/BOM/pricelist</tspan></text><rect x="1240" y="435" width="250" height="64" fill="#fce4d6" stroke="#334155" stroke-width="1.4"/><text text-anchor="middle" font-family="Arial, sans-serif" font-size="13" font-weight="400" fill="#111827"><tspan x="1365.0" y="464.0">Custom quotation BOM / PPAP</tspan><tspan x="1365.0" y="480.0">costing</tspan></text><path d="M1530,290 H1720 V342 Q1672.5,362 1625.0,342 Q1577.5,334 1530,342 Z" fill="#fff2cc" stroke="#334155" stroke-width="1.4"/><text text-anchor="middle" font-family="Arial, sans-serif" font-size="13" font-weight="400" fill="#111827"><tspan x="1625.0" y="327.0">Quotation / SO</tspan></text><polygon points="1845.0,272 1920,322.0 1845.0,372 1770,322.0" fill="#f4cccc" stroke="#334155" stroke-width="1.4"/><text text-anchor="middle" font-family="Arial, sans-serif" font-size="12" font-weight="400" fill="#111827"><tspan x="1845.0" y="326.5">Customer accepts?</tspan></text><path d="M1980,725 H2160 V777 Q2115.0,797 2070.0,777 Q2025.0,769 1980,777 Z" fill="#fff2cc" stroke="#334155" stroke-width="1.4"/><text text-anchor="middle" font-family="Arial, sans-serif" font-size="13" font-weight="400" fill="#111827"><tspan x="2070.0" y="762.0">Invoice + margin</tspan></text><rect x="1980" y="870" width="190" height="64" fill="#e2f0d9" stroke="#334155" stroke-width="1.4"/><text text-anchor="middle" font-family="Arial, sans-serif" font-size="13" font-weight="400" fill="#111827"><tspan x="2075.0" y="907.0">Win rate / GP by BU</tspan></text><polyline points="410.0,177.0 450.0,177.0 450.0,177.0 490.0,177.0" fill="none" stroke="#374151" stroke-width="1.6" marker-end="url(#arrow)"/><polyline points="680.0,177.0 710.0,177.0 710.0,322.0 740.0,322.0" fill="none" stroke="#374151" stroke-width="1.6" marker-end="url(#arrow)"/><polyline points="950.0,322.0 980.0,322.0 980.0,322.0 1010.0,322.0" fill="none" stroke="#374151" stroke-width="1.6" marker-end="url(#arrow)"/><polyline points="1160.0,322.0 1200.0,322.0 1200.0,467.0 1240.0,467.0" fill="none" stroke="#374151" stroke-width="1.6" marker-end="url(#arrow)"/><text x="1200.0" y="388.5" text-anchor="middle" font-family="Arial, sans-serif" font-size="11" fill="#334155">No</text><polyline points="1160.0,322.0 1200.0,322.0 1200.0,467.0 1240.0,467.0" fill="none" stroke="#374151" stroke-width="1.6" marker-end="url(#arrow)"/><text x="1200.0" y="388.5" text-anchor="middle" font-family="Arial, sans-serif" font-size="11" fill="#334155">Yes</text><polyline points="1460.0,467.0 1495.0,467.0 1495.0,322.0 1530.0,322.0" fill="none" stroke="#374151" stroke-width="1.6" marker-end="url(#arrow)"/><polyline points="1490.0,467.0 1510.0,467.0 1510.0,322.0 1530.0,322.0" fill="none" stroke="#374151" stroke-width="1.6" marker-end="url(#arrow)"/><polyline points="1720.0,322.0 1745.0,322.0 1745.0,322.0 1770.0,322.0" fill="none" stroke="#374151" stroke-width="1.6" marker-end="url(#arrow)"/><polyline points="1920.0,322.0 1950.0,322.0 1950.0,757.0 1980.0,757.0" fill="none" stroke="#374151" stroke-width="1.6" marker-end="url(#arrow)"/><text x="1950.0" y="533.5" text-anchor="middle" font-family="Arial, sans-serif" font-size="11" fill="#334155">Yes</text><polyline points="2070.0,789.0 2072.5,789.0 2072.5,870.0 2075.0,870.0" fill="none" stroke="#374151" stroke-width="1.6" marker-end="url(#arrow)"/><rect x="230" y="872" width="720" height="80" rx="8" fill="#fff7ed" stroke="#f59e0b" stroke-dasharray="5 4"/><text text-anchor="middle" font-family="Arial, sans-serif" font-size="12" font-weight="400" fill="#111827"><tspan x="590.0" y="909.0">Standard: CRM, Sales, margin, analytic BU/Branch. Custom: BOM-temp costing and</tspan><tspan x="590.0" y="924.0">automotive forecast import if required.</tspan></text></svg>