<svg xmlns="http://www.w3.org/2000/svg" width="2200" height="1120" viewBox="0 0 2200 1120"><defs><marker id="arrow" markerWidth="10" markerHeight="10" refX="9" refY="3" orient="auto" markerUnits="strokeWidth"><path d="M0,0 L0,6 L9,3 z" fill="#374151"/></marker></defs><rect width="100%" height="100%" fill="#ffffff"/><text x="32" y="44" font-family="Arial, sans-serif" font-size="28" font-weight="700" fill="#5b1747">Planning / MRP Master Data Swimlane</text><text x="32" y="74" font-family="Arial, sans-serif" font-size="14" fill="#475569">Detailed swimlane diagram with flowchart symbols</text><rect x="30" y="105" width="2140" height="145" fill="#f8fafc" stroke="#cbd5e1"/><rect x="30" y="105" width="180" height="145" fill="#e2e8f0" stroke="#cbd5e1"/><text x="120" y="177.5" transform="rotate(-90 120 177.5)" text-anchor="middle" font-family="Arial, sans-serif" font-size="13" font-weight="700" fill="#111827">Sales Forecast</text><rect x="30" y="250" width="2140" height="145" fill="#f8fafc" stroke="#cbd5e1"/><rect x="30" y="250" width="180" height="145" fill="#e2e8f0" stroke="#cbd5e1"/><text x="120" y="322.5" transform="rotate(-90 120 322.5)" text-anchor="middle" font-family="Arial, sans-serif" font-size="13" font-weight="700" fill="#111827">Master Data</text><rect x="30" y="395" width="2140" height="145" fill="#f8fafc" stroke="#cbd5e1"/><rect x="30" y="395" width="180" height="145" fill="#e2e8f0" stroke="#cbd5e1"/><text x="120" y="467.5" transform="rotate(-90 120 467.5)" text-anchor="middle" font-family="Arial, sans-serif" font-size="13" font-weight="700" fill="#111827">MRP Scheduler</text><rect x="30" y="540" width="2140" height="145" fill="#f8fafc" stroke="#cbd5e1"/><rect x="30" y="540" width="180" height="145" fill="#e2e8f0" stroke="#cbd5e1"/><text x="120" y="612.5" transform="rotate(-90 120 612.5)" text-anchor="middle" font-family="Arial, sans-serif" font-size="13" font-weight="700" fill="#111827">Procurement</text><rect x="30" y="685" width="2140" height="145" fill="#f8fafc" stroke="#cbd5e1"/><rect x="30" y="685" width="180" height="145" fill="#e2e8f0" stroke="#cbd5e1"/><text x="120" y="757.5" transform="rotate(-90 120 757.5)" text-anchor="middle" font-family="Arial, sans-serif" font-size="13" font-weight="700" fill="#111827">Manufacturing</text><rect x="30" y="830" width="2140" height="145" fill="#f8fafc" stroke="#cbd5e1"/><rect x="30" y="830" width="180" height="145" fill="#e2e8f0" stroke="#cbd5e1"/><text x="120" y="902.5" transform="rotate(-90 120 902.5)" text-anchor="middle" font-family="Arial, sans-serif" font-size="13" font-weight="700" fill="#111827">Reporting</text><rect x="230" y="145" width="190" height="64" rx="32.0" ry="32.0" fill="#d9ead3" stroke="#334155" stroke-width="1.4"/><text text-anchor="middle" font-family="Arial, sans-serif" font-size="13" font-weight="400" fill="#111827"><tspan x="325.0" y="182.0">Forecast / SO demand</tspan></text><polygon points="522,145 730,145 708,209 500,209" fill="#d0e0e3" stroke="#334155" stroke-width="1.4"/><text text-anchor="middle" font-family="Arial, sans-serif" font-size="13" font-weight="400" fill="#111827"><tspan x="615.0" y="174.0">Forecast qty/date/customer</tspan><tspan x="615.0" y="190.0">PO</tspan></text><rect x="780" y="302" width="240" height="40" fill="#eadcf8" stroke="#334155" stroke-width="1.4"/><ellipse cx="900.0" cy="302" rx="120.0" ry="12" fill="#eadcf8" stroke="#334155" stroke-width="1.4"/><ellipse cx="900.0" cy="342" rx="120.0" ry="12" fill="#eadcf8" stroke="#334155" stroke-width="1.4"/><text text-anchor="middle" font-family="Arial, sans-serif" font-size="13" font-weight="400" fill="#111827"><tspan x="900.0" y="327.0">Product, UoM, MOQ, lead time</tspan></text><rect x="1090" y="302" width="260" height="40" fill="#eadcf8" stroke="#334155" stroke-width="1.4"/><ellipse cx="1220.0" cy="302" rx="130.0" ry="12" fill="#eadcf8" stroke="#334155" stroke-width="1.4"/><ellipse cx="1220.0" cy="342" rx="130.0" ry="12" fill="#eadcf8" stroke="#334155" stroke-width="1.4"/><text text-anchor="middle" font-family="Arial, sans-serif" font-size="13" font-weight="400" fill="#111827"><tspan x="1220.0" y="319.0">Multi-layer BOM / routing /</tspan><tspan x="1220.0" y="335.0">revision</tspan></text><rect x="1400" y="435" width="230" height="64" fill="#dae8fc" stroke="#334155" stroke-width="1.4"/><text text-anchor="middle" font-family="Arial, sans-serif" font-size="13" font-weight="400" fill="#111827"><tspan x="1515.0" y="472.0">MRP / replenishment run</tspan></text><polygon points="1750.0,417 1820,467.0 1750.0,517 1680,467.0" fill="#f4cccc" stroke="#334155" stroke-width="1.4"/><text text-anchor="middle" font-family="Arial, sans-serif" font-size="12" font-weight="400" fill="#111827"><tspan x="1750.0" y="471.5">Buy or make?</tspan></text><path d="M1900,580 H2060 V632 Q2020.0,652 1980.0,632 Q1940.0,624 1900,632 Z" fill="#fff2cc" stroke="#334155" stroke-width="1.4"/><text text-anchor="middle" font-family="Arial, sans-serif" font-size="12" font-weight="400" fill="#111827"><tspan x="1980.0" y="616.5">RFQ / PO</tspan></text><path d="M1900,725 H2080 V777 Q2035.0,797 1990.0,777 Q1945.0,769 1900,777 Z" fill="#fff2cc" stroke="#334155" stroke-width="1.4"/><text text-anchor="middle" font-family="Arial, sans-serif" font-size="13" font-weight="400" fill="#111827"><tspan x="1990.0" y="762.0">MO / Work Orders</tspan></text><rect x="1900" y="870" width="200" height="64" fill="#fce4d6" stroke="#334155" stroke-width="1.4"/><text text-anchor="middle" font-family="Arial, sans-serif" font-size="13" font-weight="400" fill="#111827"><tspan x="2000.0" y="907.0">Forecast vs invoice KPI</tspan></text><polyline points="420.0,177.0 460.0,177.0 460.0,177.0 500.0,177.0" fill="none" stroke="#374151" stroke-width="1.6" marker-end="url(#arrow)"/><polyline points="730.0,177.0 755.0,177.0 755.0,322.0 780.0,322.0" fill="none" stroke="#374151" stroke-width="1.6" marker-end="url(#arrow)"/><polyline points="1020.0,322.0 1055.0,322.0 1055.0,322.0 1090.0,322.0" fill="none" stroke="#374151" stroke-width="1.6" marker-end="url(#arrow)"/><polyline points="1350.0,322.0 1375.0,322.0 1375.0,467.0 1400.0,467.0" fill="none" stroke="#374151" stroke-width="1.6" marker-end="url(#arrow)"/><polyline points="1630.0,467.0 1655.0,467.0 1655.0,467.0 1680.0,467.0" fill="none" stroke="#374151" stroke-width="1.6" marker-end="url(#arrow)"/><polyline points="1820.0,467.0 1860.0,467.0 1860.0,612.0 1900.0,612.0" fill="none" stroke="#374151" stroke-width="1.6" marker-end="url(#arrow)"/><text x="1860.0" y="533.5" text-anchor="middle" font-family="Arial, sans-serif" font-size="11" fill="#334155">Buy</text><polyline points="1820.0,467.0 1860.0,467.0 1860.0,757.0 1900.0,757.0" fill="none" stroke="#374151" stroke-width="1.6" marker-end="url(#arrow)"/><text x="1860.0" y="606.0" text-anchor="middle" font-family="Arial, sans-serif" font-size="11" fill="#334155">Make</text><polyline points="1980.0,644.0 1990.0,644.0 1990.0,870.0 2000.0,870.0" fill="none" stroke="#374151" stroke-width="1.6" marker-end="url(#arrow)"/><polyline points="1990.0,789.0 1995.0,789.0 1995.0,870.0 2000.0,870.0" fill="none" stroke="#374151" stroke-width="1.6" marker-end="url(#arrow)"/><rect x="230" y="872" width="720" height="80" rx="8" fill="#fff7ed" stroke="#f59e0b" stroke-dasharray="5 4"/><text text-anchor="middle" font-family="Arial, sans-serif" font-size="12" font-weight="400" fill="#111827"><tspan x="590.0" y="909.0">Standard: routes, supplier lead time, min/max, MRP and BOM/routing. Custom: customer</tspan><tspan x="590.0" y="924.0">forecast import and forecast-to-invoice KPI.</tspan></text></svg>